<?xml version="1.0" encoding="iso-8859-1"?>
<!-- Generator: Adobe Illustrator 25.1.0, SVG Export Plug-In . SVG Version: 6.00 Build 0)  -->
<svg version="1.1" id="Layer_1" xmlns="http://www.w3.org/2000/svg" xmlns:xlink="http://www.w3.org/1999/xlink" x="0px" y="0px"
	 width="641.857px" height="237.724px" viewBox="0 0 641.857 237.724" enable-background="new 0 0 641.857 237.724"
	 xml:space="preserve">
<polygon points="641.857,120.478 641.857,41.544 610.699,41.544 610.699,49.853 535.919,49.853 535.919,43.621 529.688,43.621 
	529.688,37.39 523.456,37.39 523.456,31.158 517.225,31.158 517.225,24.927 508.916,24.927 508.916,16.618 494.375,16.618 
	494.375,8.309 471.526,8.309 471.526,0 309.504,0 309.504,6.232 292.886,6.232 292.886,12.463 272.114,12.463 272.114,20.772 
	261.728,20.772 261.728,27.004 249.265,27.004 249.265,35.313 236.802,35.313 236.802,41.544 228.493,41.544 228.493,47.776 
	222.261,47.776 222.261,56.085 209.798,56.085 209.798,62.316 201.489,62.316 201.489,74.779 157.868,74.779 157.868,81.011 
	143.327,81.011 143.327,87.243 93.474,87.243 93.474,95.552 66.471,95.552 66.471,101.783 54.007,101.783 54.007,110.092 
	35.313,110.092 35.313,118.401 27.004,118.401 27.004,124.632 20.772,124.632 20.772,132.941 14.54,132.941 14.54,164.099 
	8.309,164.099 8.309,205.644 0,205.644 0,237.724 613.467,237.724 613.467,228.493 627.317,228.493 627.317,220.184 
	633.548,220.184 633.548,213.952 641.857,213.952 641.857,191.103 627.317,191.103 627.317,186.949 633.548,186.949 633.548,126.71 
	629.394,126.71 629.394,120.478 "/>
<path d="M146.173,184.871H133.71v-8.309h12.463V184.871z M108.783,176.563H96.32v8.309h12.463V176.563z M100.474,199.412h12.463
	v-8.309h-12.463V199.412z M127.478,176.563h-12.463v8.309h12.463V176.563z M164.868,176.563h-12.463v8.309h12.463V176.563z
	 M179.408,191.103h6.232v22.849H67.239v-49.853h103.86v12.463h8.309V191.103z M173.177,197.335v-16.618h-6.232v-10.386H73.471
	v20.772h4.154v8.309h-4.154v10.386h4.154v-4.154h12.463v4.154h12.463v-4.154h12.463v4.154h8.309v-4.154h10.386v4.154h10.386v-4.154
	h12.463v4.154h10.386v-4.154h10.386v4.154h4.154v-12.463H173.177z M156.559,199.412h12.463v-8.309h-12.463V199.412z
	 M137.864,199.412h12.463v-8.309h-12.463V199.412z M119.169,199.412h12.463v-8.309h-12.463V199.412z M37.475,164.514h-7.203v5.402
	h7.203V164.514z M48.413,164.514h-7.203v5.402h7.203V164.514z M587.85,178.64h6.232v-10.386h-6.232V178.64z M351.048,178.64h8.309
	v-10.386h-8.309V178.64z M76.857,139.173l-10.271-0.115v4.154l-20.887,0.115v-6.232h-4.154v-6.462h4.154v-6.232h6.232v-6.232
	l10.386,0.231v-8.309l18.695-0.231l-0.115-6.116h25.157v4.154h-6.232v8.309h-4.154v8.309l-14.656,0.115v6.232h-4.154V139.173z
	 M72.702,128.787h4.154v-8.309l14.656-0.115v-6.232h4.154v-6.232H85.281v6.232l-18.81,0.115v8.309l-12.348-0.115v4.154l-4.27,0.115
	l0.115,6.116h-2.077v2.077h2.077v4.154h12.463v-4.154l10.271,0.115V128.787z M90.088,176.563H77.625v8.309h12.463V176.563z
	 M81.779,199.412h12.463v-8.309H81.779V199.412z M31.273,197.335h9.694v-8.309h-9.694V197.335z M23.079,181.772H49.16v22.816H23.079
	V181.772z M26.31,201.357h19.618v-16.354H26.31V201.357z M184.64,170.331h8.309v-6.232h-8.309V170.331z M498.53,112.169h20.772
	v-6.232H498.53V112.169z M423.75,170.331h4.154V91.397h-4.154V170.331z M417.519,78.934h-9.309v-8.309h4.154V58.162h9.309v-14.54
	h6.232V29.081h8.309v-6.232h6.232v-6.232h27.004v6.232h12.463v5.232h14.54v9.309h8.309v6.232h8.309v12.463h4.154v14.54h-6.232v8.232
	h-18.695v8.309h-60.162V74.857h21.772v-3.232h-6.232v-9.309h-19.849v10.386h-10.309V78.934z M427.905,56.085h22.849v6.232h6.232
	v8.309h10.386v8.309h-31.158v4.154h51.93v-8.309h16.618V56.085h-6.232V41.544h-6.232v-6.232h-8.309v-4.154h-18.695v-8.309H446.6
	v8.309h-10.386v14.54h-8.309V56.085z M416.441,69.625h7.309v-7.309h-7.309V69.625z M242.802,170.331h8.309v-6.232h-8.309V170.331z
	 M242.802,105.938h64.624v4.154h-14.54v6.232h-6.232v6.232h-6.232v6.232h-16.618v6.232h-22.849v10.386l-37.505-0.115v-2.077h-4.154
	v-6.232h4.154l-0.115-12.579h10.386v-8.309h14.54v-6.232h14.54V105.938z M242.918,112.054l0.115,2.193h-10.386v6.232H216.03v8.309
	h-8.309v12.463h29.081l-0.115-10.501h22.849v-6.232h14.54v-2.077h4.154v-6.232h6.232v-6.232h-37.39v2.077H242.918z M531.688,86.32
	h-6.154v-4.154h-4.154v9.232h6.232v45.699h-6.232v12.463h-6.232v14.54h-8.309v14.54h-8.309v6.232h-16.618v6.232h-66.471v-6.232
	h-10.386v-14.54h-6.232v20.772h6.232v6.232h10.386h66.471v-2.077h4.154v-6.309h18.695v-6.232h6.232v-14.54h8.309v-14.54h6.232
	v-12.463h6.154v-6.154h2.154V91.397h-2.154V86.32z M629.394,120.478v6.232h4.154v60.239h-6.232v4.154h14.54v22.849h-8.309v6.232
	h-6.232v8.309h-13.849v9.232H0v-32.081h8.309v-41.544h6.232v-31.158h6.232v-8.309h6.232v-6.232h8.309v-8.309h18.695v-8.309h12.463
	v-6.232h27.004v-8.309h49.853v-6.232h14.54v-6.232h43.621V62.316h8.309v-6.232h12.463v-8.309h6.232v-6.232h8.309v-6.232h12.463
	v-8.309h12.463v-6.232h10.386v-8.309h20.772V6.232h16.618V0h162.022v8.309h22.849v8.309h14.54v8.309h8.309v6.232h6.232v6.232h6.232
	v6.232h6.232v6.232h74.779v-8.309h31.158v78.934H629.394z M209.798,74.779h182.794V64.471h7.309V47.853h7.232V35.39h6.309V20.772
	H278.346v6.232H267.96v6.232h-4.154v4.154h-12.463v4.154h-12.463V51.93h-8.309v10.386h-14.54v8.309h-6.232V74.779z M382.322,149.444
	h-6.232v-14.54h-4.154v-8.309h-6.232v-6.232h-25.157v6.232h-6.232v8.309h-8.309v64.624h8.309v14.541h6.232v7.232h6.232v9.271h23.08
	v-9.271h6.232v-15.541h6.232V149.444z M614.853,149.328l-4.039,0.115v-14.54h-6.232v-8.309h-6.232v-6.232h-23.08v6.232h-6.232v8.309
	h-6.232v64.624h6.232v14.541h8.309v6.232h6.232v10.271h21.003v-10.271h6.116v-16.733h4.154V149.328z M623.162,197.335v10.386h-6.232
	v12.463v2.077h4.154v-6.232h8.309v-8.309h8.309v-10.386H623.162z M627.317,126.71h-8.309V99.706h-12.463v-14.54H587.85v-8.309
	h-29.081v-6.232h-10.386v-6.232h-8.309v-8.309h-14.541V41.544h-6.232v-6.232h-6.232v-6.232h-8.309v-8.309h-14.54v-8.309h-24.772
	V6.232H313.658v8.309h105.938v6.232h6.232v6.232h-6.232v14.54h-6.232v12.463h-8.309v16.618h-6.232v8.309h-8.309v4.154H164.099v4.154
	h-14.54v4.154H99.706v8.309H72.702v6.232h-14.54v8.309H43.621v6.232H37.39v6.232h-8.309v8.309h-6.232v35.313H14.54v43.621H8.309
	v16.618h299.118v-74.779h8.309v-14.54h6.232v-12.463h6.232v-8.309h8.309v-6.232h35.313v6.232h6.232v14.54h8.309v14.54v63.085h-2.077
	v17.927h170.331v-16.618h-6.232v-58.162h8.309v-27.004h6.232v-8.309h6.232v-6.232h35.313v6.232h6.232v12.463h8.309v51.93h8.309
	V126.71z M633.548,114.246V49.853h-20.772v6.232h-14.541v6.232h-6.232v-6.232h-43.621v4.154h8.309v4.154h6.232v6.232h18.695v-6.232
	h8.309v6.232h2.077v6.232h10.386v2.077h8.309v6.232h6.232v6.232h10.386v22.849H633.548z M89.32,132.051h5.587v7.122h96.841v-7.122
	h5.587v-5.341H89.32V132.051z M212.221,175.87h36.697v32.543h-36.697V175.87z M215.683,204.951h29.773v-25.619h-29.773V204.951z
	 M222.261,199.412h16.618v-14.54h-16.618V199.412z M199.18,170.331h8.309v-6.232h-8.309V170.331z M213.721,164.099v6.232h8.309
	v-6.232H213.721z M228.261,164.099v6.232h8.309v-6.232H228.261z M51.613,169.916h7.203v-5.402h-7.203V169.916z M257.802,170.331
	h8.309v-6.232h-8.309V170.331z"/>
<g>
	<path fill="#E6E6E6" d="M376.09,134.903h-4.154v-8.309h-6.232v-6.232h-25.157v6.232h-6.232v8.309h-8.309v64.624h8.309v14.541h6.232
		v7.232h6.232v9.271h23.08v-9.271h6.232v-15.541h6.232v-56.315h-6.232V134.903z M375.859,201.374h-4.154v10.386h-4.154v6.232
		h-16.387v-10.386h-6.232v-8.309h-4.154v-8.309h-6.232V145.52h6.232v-4.154h4.154v-6.232h16.387v6.232h6.232v6.232h4.154v10.386
		h4.154V201.374z"/>
	<path fill="#E6E6E6" d="M610.814,134.903h-6.232v-8.309h-6.232v-6.232h-23.08v6.232h-6.232v8.309h-6.232v64.624h6.232v14.541h8.309
		v6.232h6.232v10.271h21.003v-10.271h6.116v-16.733h4.154v-54.238l-4.039,0.115V134.903z M610.699,197.335h-2.077v8.309h-8.309
		v12.463h-16.618v-6.232h-6.232v-14.54h-6.232V141.25h6.232v-10.386h20.772v4.154h4.154v4.154h2.077v14.54h6.232V197.335z"/>
</g>
<!-- change color here -->
<path fill="blue" d="M76.857,128.787h-4.154v6.232l-10.271-0.115v4.154H49.968v-4.154h-2.077v-2.077h2.077l-0.115-6.116
	l4.27-0.115v-4.154l12.348,0.115v-8.309l18.81-0.115v-6.232h10.386v6.232h-4.154v6.232l-14.656,0.115V128.787z M232.647,114.246
	v6.232H216.03v8.309h-8.309v12.463h29.081l-0.115-10.501h22.849v-6.232h14.54v-2.077h4.154v-6.232h6.232v-6.232h-37.39v2.077h-4.154
	l0.115,2.193H232.647z M245.457,204.951h-29.773v-25.619h29.773V204.951z M238.879,184.871h-16.618v14.54h16.618V184.871z
	 M45.928,201.357H26.31v-16.354h19.618V201.357z M40.966,189.026h-9.694v8.309h9.694V189.026z M619.008,126.71h8.309v58.162h-8.309
	v-51.93h-8.309v-12.463h-6.232v-6.232h-35.313v6.232h-6.232v8.309h-6.232v27.004h-8.309v58.162h6.232v16.618H384.283v-17.927h2.077
	v-63.085v-14.54h-8.309v-14.54h-6.232v-6.232h-35.313v6.232h-8.309v8.309h-6.232v12.463h-6.232v14.54h-8.309v74.779H8.309v-16.618
	h6.232v-43.621h8.309v-35.313h6.232v-8.309h8.309v-6.232h6.232v-6.232h14.541v-8.309h14.54v-6.232h27.004v-8.309h49.853v-4.154
	h14.54v-4.154h226.416v-4.154h8.309v-8.309h6.232V54.007h8.309V41.544h6.232v-14.54h6.232v-6.232h-6.232V14.54H313.658V6.232
	h151.791v6.232h24.772v8.309h14.54v8.309h8.309v6.232h6.232v6.232h6.232v14.541h14.541v8.309h8.309v6.232h10.386v6.232h29.081v8.309
	h18.695v14.54h12.463V126.71z M41.211,169.916h7.203v-5.402h-7.203V169.916z M30.273,169.916h7.203v-5.402h-7.203V169.916z
	 M49.16,181.772H23.079v22.816H49.16V181.772z M58.816,164.514h-7.203v5.402h7.203V164.514z M66.586,139.058l10.271,0.115v-8.309
	h4.154v-6.232l14.656-0.115v-8.309h4.154v-8.309h6.232v-4.154H80.896l0.115,6.116l-18.695,0.231v8.309L51.93,118.17v6.232h-6.232
	v6.232h-4.154v6.462h4.154v6.232l20.887-0.115V139.058z M185.64,191.103h-6.232v-14.54h-8.309v-12.463H67.239v49.853H185.64V191.103
	z M192.949,164.099h-8.309v6.232h8.309V164.099z M197.335,126.71H89.32v5.341h5.587v7.122h96.841v-7.122h5.587V126.71z
	 M207.489,164.099h-8.309v6.232h8.309V164.099z M248.919,175.87h-36.697v32.543h36.697V175.87z M222.03,170.331v-6.232h-8.309v6.232
	H222.03z M236.57,170.331v-6.232h-8.309v6.232H236.57z M251.11,164.099h-8.309v6.232h8.309V164.099z M266.11,164.099h-8.309v6.232
	h8.309V164.099z M307.427,105.938h-64.624v3.924h-14.54v6.232h-14.54v8.309h-10.386l0.115,12.579h-4.154v6.232h4.154v2.077
	l37.505,0.115v-10.386h22.849v-6.232h16.618v-6.232h6.232v-6.232h6.232v-6.232h14.54V105.938z M408.21,78.934h9.309v-6.232h10.309
	V62.316h19.849v9.309h6.232v3.232h-21.772v12.309h60.162v-8.309h18.695v-8.232h6.232v-14.54h-4.154V43.621h-8.309V37.39h-8.309
	v-9.309h-14.54v-5.232h-12.463v-6.232h-27.004v6.232h-6.232v6.232h-8.309v14.541h-6.232v14.54h-9.309v12.463h-4.154V78.934z
	 M498.53,105.938v6.232h20.772v-6.232H498.53z M423.75,91.397v78.934h4.154V91.397H423.75z M533.842,91.397h-2.154V86.32h-6.154
	v-4.154h-4.154v9.232h6.232v45.699h-6.232v12.463h-6.232v14.54h-8.309v14.54h-8.309v6.232h-16.618v6.232h-66.471v-6.232h-10.386
	v-14.54h-6.232v20.772h6.232v6.232h10.386h66.471v-2.077h4.154v-6.309h18.695v-6.232h6.232v-14.54h8.309v-14.54h6.232v-12.463h6.154
	v-6.154h2.154V91.397z"/>
<g>
	<polygon fill="#4D4D4E" points="633.548,49.853 612.776,49.853 612.776,56.085 598.236,56.085 598.236,62.316 592.004,62.316 
		592.004,56.085 548.383,56.085 548.383,60.239 556.692,60.239 556.692,64.393 562.923,64.393 562.923,70.625 581.618,70.625 
		581.618,64.393 589.927,64.393 589.927,70.625 592.004,70.625 592.004,76.857 602.39,76.857 602.39,78.934 610.699,78.934 
		610.699,85.166 616.931,85.166 616.931,91.397 627.317,91.397 627.317,114.246 633.548,114.246 	"/>
	<polygon fill="#4D4D4E" points="392.592,64.471 399.901,64.471 399.901,47.853 407.133,47.853 407.133,35.39 413.441,35.39 
		413.441,20.772 278.346,20.772 278.346,27.004 267.96,27.004 267.96,33.235 263.805,33.235 263.805,37.39 251.342,37.39 
		251.342,41.544 238.879,41.544 238.879,51.93 230.57,51.93 230.57,62.316 216.03,62.316 216.03,70.625 209.798,70.625 
		209.798,74.779 392.592,74.779 	"/>
	<polygon fill="#4D4D4E" points="450.754,62.316 456.986,62.316 456.986,70.625 467.372,70.625 467.372,78.934 436.214,78.934 
		436.214,83.088 488.144,83.088 488.144,74.779 504.761,74.779 504.761,56.085 498.53,56.085 498.53,41.544 492.298,41.544 
		492.298,35.313 483.989,35.313 483.989,31.158 465.294,31.158 465.294,22.849 446.6,22.849 446.6,31.158 436.214,31.158 
		436.214,45.699 427.905,45.699 427.905,56.085 450.754,56.085 	"/>
	<path fill="#4D4D4E" d="M604.467,139.173h-2.077v-4.154h-4.154v-4.154h-20.772v10.386h-6.232v56.085h6.232v14.54h6.232v6.232
		h16.618v-12.463h8.309v-8.309h2.077v-43.621h-6.232V139.173z M594.081,178.64h-6.232v-10.386h6.232V178.64z"/>
	<polygon fill="#4D4D4E" points="623.162,207.721 616.931,207.721 616.931,220.184 616.931,222.261 621.085,222.261 621.085,216.03 
		629.394,216.03 629.394,207.721 637.703,207.721 637.703,197.335 623.162,197.335 	"/>
	<rect x="416.441" y="62.316" fill="#4D4D4E" width="7.309" height="7.309"/>
	<path fill="#4D4D4e" d="M173.177,180.717h-6.232v-10.386H73.471v20.772h4.154v8.309h-4.154v10.386h4.154v-4.154h12.463v4.154
		h12.463v-4.154h12.463v4.154h8.309v-4.154h10.386v4.154h10.386v-4.154h12.463v4.154h10.386v-4.154h10.386v4.154h4.154v-12.463
		h-8.309V180.717z M77.625,176.563h12.463v8.309H77.625V176.563z M94.243,199.412H81.779v-8.309h12.463V199.412z M96.32,176.563
		h12.463v8.309H96.32V176.563z M112.938,199.412h-12.463v-8.309h12.463V199.412z M115.015,176.563h12.463v8.309h-12.463V176.563z
		 M131.632,199.412h-12.463v-8.309h12.463V199.412z M133.71,176.563h12.463v8.309H133.71V176.563z M150.327,199.412h-12.463v-8.309
		h12.463V199.412z M152.404,184.871v-8.309h12.463v8.309H152.404z M169.022,199.412h-12.463v-8.309h12.463V199.412z"/>
	<path fill="#4D4D4E" d="M371.705,147.597h-4.154v-6.232h-6.232v-6.232h-16.387v6.232h-4.154v4.154h-6.232v45.468h6.232v8.309h4.154
		v8.309h6.232v10.386h16.387v-6.232h4.154v-10.386h4.154v-43.391h-4.154V147.597z M359.357,178.64h-8.309v-10.386h8.309V178.64z"/>
</g>
<g>
</g>
<g>
</g>
<g>
</g>
<g>
</g>
<g>
</g>
</svg>
